<svg version="1" xmlns="http://www.w3.org/2000/svg" width="94.667" height="94.667" viewBox="0 0 71.000000 71.000000"><path d="M28.2 19.7c-2.7.5-2.6 1.4 1.3 13.6 2.7 8.7 2.8 8.8 5.8 8.5 2.9-.3 3.2-.8 6.5-10.6 1.9-5.6 3.2-10.5 2.9-10.9-.8-.7-13.4-1.2-16.5-.6zM19.3 23.3c-4.8 2.6-7.2 4.5-9.6 7.3-1.8 2.1-1.7 2.2 7.2 8.8 8.1 6 9.2 6.6 11 5.4 2.7-1.6 2.6-2.8-.4-12.4-1.4-4.3-2.5-8.4-2.5-9.1 0-2.2-1.7-2.2-5.7 0zM46.7 21.7c-.2.5-1.9 5.2-3.7 10.7l-3.2 9.8 2 2.1 2 2 9.7-6.8 9.7-6.7-3.2-3.3c-3.5-3.7-12.6-9-13.3-7.8zM3.9 39.5c-1.1 2.5-2.2 6.7-2.6 9.3l-.5 4.8 11.7-.1h11.8l.3-3.2c.3-2.9-.2-3.5-8.1-9.2-4.7-3.4-9-6.1-9.6-6.1-.5 0-1.9 2-3 4.5zM54 41.1c-8.4 6-9.2 7.1-7.6 11.4.3.8 16.3 1.3 22.3.6 2.7-.3-2.3-18.2-5.1-18.1-.6.1-4.9 2.8-9.6 6.1z"/></svg>