<svg xmlns="http://www.w3.org/2000/svg" width="8.645" height="10.725" viewBox="28.145 27.17 8.645 10.725"><path fill="#F9F9F9" d="M31.07 31.59c.52-.52 1.3-.52 1.82 0l3.51 3.51c.52.521.52 1.301 0 1.82-.521.52-1.301.52-1.82 0l-3.51-3.51c-.455-.455-.455-1.3 0-1.82z"/><path fill="#F9F9F9" d="M31.395 31.265l3.185-3.185c.52-.52 1.3-.52 1.82 0s.52 1.3 0 1.82l-3.186 3.185c-.52.521-1.3.521-1.82 0-.454-.52-.454-1.365.001-1.82z"/><g><path fill="#F9F9F9" d="M29.445 27.17c.715 0 1.3.585 1.3 1.3v8.125c0 .715-.585 1.299-1.3 1.299-.715 0-1.3-.584-1.3-1.299V28.47c0-.715.585-1.3 1.3-1.3z"/></g></svg>