<?xml version="1.0" encoding="utf-8"?>
<!-- Generator: Adobe Illustrator 15.1.0, SVG Export Plug-In . SVG Version: 6.00 Build 0)  -->
<!DOCTYPE svg PUBLIC "-//W3C//DTD SVG 1.1//EN" "http://www.w3.org/Graphics/SVG/1.1/DTD/svg11.dtd">
<svg version="1.1" id="Calque_1" xmlns="http://www.w3.org/2000/svg" xmlns:xlink="http://www.w3.org/1999/xlink" x="0px" y="0px"
	 width="8.646px" height="10.66px" viewBox="28.21 27.17 8.646 10.66" enable-background="new 28.21 27.17 8.646 10.66"
	 xml:space="preserve">
<g>
	<g>
		<g>
			<path fill="#F9F9F9" d="M33.93,33.41c-0.52,0.52-1.3,0.52-1.82,0L28.6,29.9c-0.52-0.52-0.52-1.3,0-1.82s1.3-0.52,1.82,0
				l3.51,3.51C34.385,32.045,34.385,32.89,33.93,33.41z"/>
		</g>
		<g>
			<path fill="#F9F9F9" d="M33.605,33.734L30.42,36.92c-0.52,0.52-1.3,0.52-1.82,0s-0.52-1.3,0-1.82l3.185-3.185
				c0.52-0.52,1.3-0.52,1.82,0C34.061,32.435,34.061,33.279,33.605,33.734z"/>
		</g>
	</g>
	<g>
		<path fill="#F9F9F9" d="M35.555,37.83c-0.715,0-1.3-0.585-1.3-1.301V28.47c0-0.715,0.585-1.3,1.3-1.3s1.301,0.585,1.301,1.3v8.125
			C36.855,37.245,36.27,37.83,35.555,37.83z"/>
	</g>
</g>
</svg>
