<svg xmlns="http://www.w3.org/2000/svg" viewBox="0 0 100 100"><path fill="#FFF" d="M79.4 76.6L58.9 56.1C62.1 52.3 64 47.3 64 42c0-12.1-9.9-22-22-22s-22 9.9-22 22 9.9 22 22 22c5.3 0 10.3-1.9 14.1-5.1l20.5 20.5c.8.8 2 .8 2.8 0 .8-.8.8-2 0-2.8zM42 60c-9.9 0-18-8.1-18-18s8.1-18 18-18 18 8.1 18 18-8.1 18-18 18zm6.7-29.2c-.2.4-.5.6-.9.6-.2 0-.3 0-.4-.1-.5-.3-1-.5-1.6-.7-.5-.2-.8-.7-.6-1.3.2-.5.7-.8 1.3-.6.6.2 1.2.5 1.8.8.5.2.7.8.4 1.3zM43 29c0 .6-.4 1-1 1-6.6 0-12 5.4-12 12 0 .6-.4 1-1 1s-1-.4-1-1c0-7.7 6.3-14 14-14 .6 0 1 .4 1 1z"/></svg>