<svg xmlns="http://www.w3.org/2000/svg" width="25.74" height="25.74" viewBox="19.63 19.63 25.74 25.74"><path fill="#F9F9F9" d="M32.5 19.63c-7.085 0-12.87 5.785-12.87 12.87s5.785 12.87 12.87 12.87 12.87-5.785 12.87-12.87-5.785-12.87-12.87-12.87zm0 23.399c-5.785 0-10.53-4.744-10.53-10.529s4.745-10.53 10.53-10.53 10.529 4.745 10.529 10.53S38.285 43.029 32.5 43.029z"/><path fill="#F9F9F9" d="M37.505 33.93h-10.01c-.715 0-1.3-.584-1.3-1.3 0-.715.585-1.3 1.3-1.3H37.57c.715 0 1.3.585 1.3 1.3-.065.716-.649 1.3-1.365 1.3z"/></svg>