<svg xmlns="http://www.w3.org/2000/svg" width="25.74" height="25.74" viewBox="19.63 19.63 25.74 25.74"><path fill="#F9F9F9" d="M32.5 45.37c7.085 0 12.87-5.785 12.87-12.87S39.585 19.63 32.5 19.63 19.63 25.415 19.63 32.5s5.785 12.87 12.87 12.87zm0-23.4c5.785 0 10.529 4.745 10.529 10.53S38.285 43.029 32.5 43.029 21.97 38.285 21.97 32.5s4.745-10.53 10.53-10.53z"/><path fill="#F9F9F9" d="M32.565 39c-.715 0-1.3-.585-1.3-1.3V27.625c0-.715.585-1.3 1.3-1.3.714 0 1.3.585 1.3 1.3V37.7c0 .715-.586 1.3-1.3 1.3z"/><path fill="#F9F9F9" d="M37.57 33.93H27.56c-.715 0-1.3-.584-1.3-1.3 0-.715.585-1.3 1.3-1.3h10.075c.715 0 1.301.585 1.301 1.3-.066.78-.651 1.3-1.366 1.3z"/></svg>